<svg xmlns="http://www.w3.org/2000/svg" width="33.636" height="23.543" viewBox="0 0 33.636 23.543">
  <path id="Icon_awesome-users-cog" data-name="Icon awesome-users-cog" d="M32.089,18.509a6.166,6.166,0,0,0,0-2.239l1.356-.783a.381.381,0,0,0,.173-.447,7.888,7.888,0,0,0-1.745-3.017.383.383,0,0,0-.473-.074l-1.356.783a6.171,6.171,0,0,0-1.94-1.12V10.047a.383.383,0,0,0-.3-.373,7.93,7.93,0,0,0-3.48,0,.383.383,0,0,0-.3.373v1.566a6.171,6.171,0,0,0-1.94,1.12l-1.356-.783a.384.384,0,0,0-.473.074,7.888,7.888,0,0,0-1.745,3.017.387.387,0,0,0,.173.447l1.356.783a6.166,6.166,0,0,0,0,2.239l-1.356.783a.381.381,0,0,0-.173.447,7.927,7.927,0,0,0,1.745,3.017.383.383,0,0,0,.473.074l1.356-.783a6.171,6.171,0,0,0,1.94,1.12v1.566a.383.383,0,0,0,.3.373,7.93,7.93,0,0,0,3.48,0,.383.383,0,0,0,.3-.373V23.166a6.171,6.171,0,0,0,1.94-1.12l1.356.783a.384.384,0,0,0,.473-.074,7.888,7.888,0,0,0,1.745-3.017.387.387,0,0,0-.173-.447l-1.356-.783Zm-6.018,1.43A2.549,2.549,0,1,1,28.62,17.39,2.552,2.552,0,0,1,26.071,19.939Zm-21.025-7.6A3.364,3.364,0,1,0,1.682,8.98,3.367,3.367,0,0,0,5.046,12.344ZM16.82,14.026c.1,0,.194-.026.294-.032a9.69,9.69,0,0,1,1.908-3.112,2.072,2.072,0,0,1,1.519-.662,2.02,2.02,0,0,1,1.03.279l.415.242c.042-.026.084-.047.126-.074A5.818,5.818,0,0,0,22.7,8.144a5.884,5.884,0,1,0-5.882,5.882Zm5.53,10.223c-.121-.063-.242-.137-.357-.2a2.6,2.6,0,0,1-1.445.515,2.089,2.089,0,0,1-1.519-.662,9.584,9.584,0,0,1-2.113-3.658,2.243,2.243,0,0,1,1.356-2.644q-.008-.2,0-.41l-.415-.242a2.141,2.141,0,0,1-.515-.426c-.173.011-.342.032-.515.032a8.3,8.3,0,0,1-3.6-.841h-.436a6.058,6.058,0,0,0-6.06,6.055v1.514A2.524,2.524,0,0,0,9.251,25.8H22.675a2.024,2.024,0,0,1-.326-1.067ZM9.1,15a3.354,3.354,0,0,0-2.371-.978H3.364A3.367,3.367,0,0,0,0,17.39v1.682a1.68,1.68,0,0,0,1.682,1.682H5.146A7.708,7.708,0,0,1,9.1,15Z" transform="translate(0 -2.257)" fill="#444"/>
</svg>
