<svg xmlns="http://www.w3.org/2000/svg" width="24.198" height="24.198" viewBox="0 0 24.198 24.198">
  <path id="Icon_awesome-chevron-circle-right" data-name="Icon awesome-chevron-circle-right" d="M12.661.563a12.1,12.1,0,1,1-12.1,12.1A12.1,12.1,0,0,1,12.661.563Zm5.557,11.269-6.61-6.61a1.166,1.166,0,0,0-1.654,0l-.829.829a1.166,1.166,0,0,0,0,1.654l4.957,4.957L9.124,17.618a1.166,1.166,0,0,0,0,1.654l.829.829a1.166,1.166,0,0,0,1.654,0l6.61-6.61A1.172,1.172,0,0,0,18.218,11.832Z" transform="translate(-0.563 -0.563)" fill="#08588B"/>
</svg>
