<svg xmlns="http://www.w3.org/2000/svg" width="132" height="132" viewBox="0 0 132 132">
  <g id="Group_4060" data-name="Group 4060" transform="translate(-489 -277)">
    <g id="Group_18" data-name="Group 18" transform="translate(0 -15)">
      <circle id="Ellipse_4" data-name="Ellipse 4" cx="66" cy="66" r="66" transform="translate(489 292)" fill="#08588b"/>
    </g>
    <g id="Artboard_1" data-name="Artboard 1" transform="translate(517.501 305.516)">
      <path id="Path_11560" data-name="Path 11560" d="M59,72.4c-.72-4.36-2.3-8.75-6-11.62a23.81,23.81,0,0,0-13.7-5.09c-2-3-4.8-6.21-7.08-9.29-1.61-2.18-6.14-7.64-7.09-9.43,4.23-2.15,18.1-1.78,23.06-.73,9.84,2.08,9.46,3.08,14.38,10.37,1.81,2.68,8.9,12.52,9.62,14.69,1.16,3.51-1.2,6.44-2.79,8.78C67.39,73,68.47,72.5,59,72.4Z" fill="#fff" fill-rule="evenodd"/>
      <path id="Path_11561" data-name="Path 11561" d="M39,2.58c8.57.84,15,7.9,14.1,16.94A15.63,15.63,0,0,1,35.7,33.09,15.45,15.45,0,0,1,21.93,16,15.49,15.49,0,0,1,39,2.58Z" fill="#fff" fill-rule="evenodd"/>
      <path id="Path_11562" data-name="Path 11562" d="M35.66,55.7C25,55.92,16.94,63.11,15.89,72.3c-1.36.21-7.14.36-8.1-.11s-2.9-3.6-3.72-4.82c-3.46-5.22-.49-7.49,2.07-11.58,2.2-3.52,4.44-6.59,6.78-10,2.63-3.85,3.59-6.91,9-8.09l13.71,18Z" fill="#fff" fill-rule="evenodd"/>
      <path id="Path_11563" data-name="Path 11563" d="M53.93,72.42H21.09c-1.13-10.58,18.24-16.16,27.67-9,2.33,1.76,5.69,4.89,5.17,9.06Z" fill="#fff" fill-rule="evenodd"/>
    </g>
  </g>
</svg>
