<svg xmlns="http://www.w3.org/2000/svg" width="23.136" height="20.566" viewBox="0 0 23.136 20.566">
  <path id="Icon_metro-drive-eta" data-name="Icon metro-drive-eta" d="M26.89,9.01a1.933,1.933,0,0,0-1.825-1.3H10.926A1.933,1.933,0,0,0,9.1,9.01l-2.674,7.7V26.992a1.289,1.289,0,0,0,1.285,1.285H9a1.285,1.285,0,0,0,1.285-1.285V25.707H25.707v1.285a1.289,1.289,0,0,0,1.285,1.285h1.285a1.285,1.285,0,0,0,1.285-1.285V16.71L26.89,9.01ZM10.926,21.851a1.928,1.928,0,1,1,1.928-1.928A1.925,1.925,0,0,1,10.926,21.851Zm14.139,0a1.928,1.928,0,1,1,1.928-1.928A1.925,1.925,0,0,1,25.064,21.851ZM9,15.424,10.926,9.64H25.064l1.928,5.784Z" transform="translate(-6.427 -7.712)" fill="#444"/>
</svg>
