<svg xmlns="http://www.w3.org/2000/svg" width="26.1" height="25.298" viewBox="0 0 26.1 25.298">
  <path id="Icon_awesome-list-alt" data-name="Icon awesome-list-alt" d="M23.653,27.548H2.447A2.589,2.589,0,0,1,0,24.838V4.961A2.589,2.589,0,0,1,2.447,2.25H23.653A2.589,2.589,0,0,1,26.1,4.961V24.838A2.589,2.589,0,0,1,23.653,27.548ZM6.525,7.219A2.157,2.157,0,0,0,4.486,9.478a2.157,2.157,0,0,0,2.039,2.259A2.157,2.157,0,0,0,8.564,9.478,2.157,2.157,0,0,0,6.525,7.219Zm0,5.421A2.157,2.157,0,0,0,4.486,14.9a2.157,2.157,0,0,0,2.039,2.259A2.157,2.157,0,0,0,8.564,14.9,2.157,2.157,0,0,0,6.525,12.64Zm0,5.421A2.157,2.157,0,0,0,4.486,20.32a2.157,2.157,0,0,0,2.039,2.259A2.157,2.157,0,0,0,8.564,20.32,2.157,2.157,0,0,0,6.525,18.062Zm14.681-7.68V8.575a.647.647,0,0,0-.612-.678H10.4a.647.647,0,0,0-.612.678v1.807a.647.647,0,0,0,.612.678h10.2A.647.647,0,0,0,21.206,10.382Zm0,5.421V14a.647.647,0,0,0-.612-.678H10.4A.647.647,0,0,0,9.787,14V15.8a.647.647,0,0,0,.612.678h10.2A.647.647,0,0,0,21.206,15.8Zm0,5.421V19.417a.647.647,0,0,0-.612-.678H10.4a.647.647,0,0,0-.612.678v1.807a.647.647,0,0,0,.612.678h10.2A.647.647,0,0,0,21.206,21.224Z" transform="translate(0 -2.25)" fill="#444"/>
</svg>
